<svg version="1.1" id="Слой_1" xmlns="http://www.w3.org/2000/svg" x="0" y="0" viewBox="0 0 32.4 32" xml:space="preserve"><style>.st0{fill:#fff}</style><path class="st0" d="M16.2,32c-8.8,0-16-7.2-16-16s7.2-16,16-16s16,7.2,16,16S25,32,16.2,32z M16.2,2c-7.7,0-14,6.3-14,14	s6.3,14,14,14s14-6.3,14-14S23.9,2,16.2,2z"/><path class="st0" d="M12.8,22.9c-0.2,0-0.3,0-0.5-0.1c-0.3-0.2-0.5-0.5-0.5-0.9V10.1c0-0.4,0.2-0.7,0.5-0.9C12.6,9,13,9,13.3,9.2	l8.7,5.9c0.3,0.2,0.4,0.5,0.4,0.8c0,0.3-0.2,0.6-0.4,0.8l-8.7,5.9C13.1,22.8,12.9,22.9,12.8,22.9z M13.8,12v8l5.9-4L13.8,12z"/></svg>