<svg version="1.1" id="BG" xmlns="http://www.w3.org/2000/svg" xmlns:xlink="http://www.w3.org/1999/xlink" x="0" y="0" viewBox="0 0 670 795" xml:space="preserve"><style>.st0{fill:#ea9378}.st1{fill:#ffc1a9}.st2{fill:#ffdbcd}.st3{fill:#0b7777}.st4{fill:#199ca2}.st9{fill:#e8e8f1}.st10{fill:#6fccd9}.st11{fill:#c9c9d6}</style><path class="st0" d="M267.2,410.1c-21,47.7-16.5,80.4-25.4,108.3c-13.1,41.3-50.2,35.9-50.2,35.9s5.5-36.3,6.9-83.9 c0.5-18.4,11.7-34.9,28.5-42.4L267.2,410.1z"/><path class="st0" d="M225.4,471.1c12.4-29,12.2-64,35.4-110.8c1.9-4,4.1-8,6.4-12.2l-14.1,4.7l-34.7,11.6 c-2.7,0.9-5.3,2-7.8,3.3v125.6C216.2,487.9,221.3,480.8,225.4,471.1z"/><path class="st1" d="M210.7,367.7v125.6c-21,20.4-47.7,13.8-47.7,13.8s0.8-4,1.9-10.3c2.2-11.5,5.8-30.9,9.1-48.6 c3.1-17.2,5.9-32.7,6.5-37.8C182.9,391.9,194.4,376.1,210.7,367.7z"/><path class="st0" d="M241.6,286.5c17.3-7.4,58.4-28.1,60.6-29.3c-7.3-4.6-82.1-59.3-91.6-67.1v68.9 C216.6,264.8,237.7,283,241.6,286.5z"/><path class="st1" d="M197.2,178.9c0,0-27.7,31.2,2.7,68.6c3.3,4,6.9,7.8,10.7,11.5v-68.9C203,183.8,197.2,178.9,197.2,178.9z"/><path class="st1" d="M209.8,299.4c-19.3,7.4-59.1,20.3-59.1,20.3s11.8,40,59.6,34.1c0.1,0,0.3,0,0.4-0.1v-54.7 C210.4,299.2,210.1,299.3,209.8,299.4z"/><path class="st0" d="M273.1,320.2c-10.7-13.8-21.3-24.5-31.5-33.7c-0.2,0.1-0.5,0.2-0.7,0.3c-10.6,4.5-20.8,8.6-30.3,12.2v54.7 c20.5-2.6,40.4-11.4,67-17.8c1.9-0.5,3.9-0.9,5.8-1.3C280.1,329.5,276.6,324.7,273.1,320.2L273.1,320.2z"/><path class="st1" d="M548.6,708.7c-6.7,52.4-113.7,81.9-159.2,47.8c-10-7.4-16.7-22.5-22.9-39.5v0c-0.1-0.3-0.2-0.6-0.4-1 c-1.9-5.1-3.7-10.4-5.5-15.7c-0.1-0.4-0.3-0.9-0.4-1.3c-1-2.8-1.9-5.6-2.9-8.4c-0.1-0.2-0.1-0.3-0.2-0.5c-2-5.5-4.1-10.9-6.3-16 c-0.1-0.1-0.1-0.3-0.2-0.4c-6.8-15.5-15.1-28.5-27.2-34.3c-35.5-17-55.2-47.6-64.1-65.1c-4.1-8-5.9-13.3-5.9-13.3 s2.9-0.3,8.2-0.8c31-3,142.5-12.9,205.7-4.2c5.7,0.8,10.9,1.7,15.7,2.8c18,4.1,29.2,10.5,28.8,20.2 c-0.6,15.8,4.3,29.5,10.8,42.9c0,0,0,0.1,0,0.1c2.1,4.4,4.4,8.7,6.7,13.1c0,0,0,0.1,0.1,0.1c1.7,3.2,3.4,6.4,5,9.7 c0.2,0.4,0.4,0.8,0.6,1.2c2.1,4.1,4,8.2,5.8,12.5c0.2,0.5,0.4,1,0.6,1.5C547.3,674.5,551,690.1,548.6,708.7z"/><path class="st0" d="M467.3,556.1c-4.1,3.5-9.4,5.7-15.2,5.7H269.7c-2.9,0-5.6-0.5-8.1-1.4c-5.3,0.5-8.2,0.8-8.2,0.8 s1.8,5.3,5.9,13.3c2.6,0.7,5.4,1,8.2,1h186.7c12.3,0,23-6.6,28.7-16.6C478.2,557.8,473,556.8,467.3,556.1z"/><path class="st2" d="M183.7,474.9l-2.3,17.2c-0.4,3.1-3.2,5.4-6.3,5.3l-10.2-0.5c2.2-11.5,5.8-30.9,9.1-48.6 C181.1,454.8,185.1,464.5,183.7,474.9z"/><path class="st3" d="M465.8,779.1H374l-36.7-97.4l40.1-12.2l39.6-12.1l16.3,11.2c22.9,15.7,34.3,43.6,28.8,70.9 c-0.9,4.6-1.3,9.1-1.3,13.6C460.8,762.1,462.5,771,465.8,779.1z"/><path class="st4" d="M638.8,779.1h-173c-3.3-8.2-5.1-17-5.1-26c0-4.5,0.5-9,1.3-13.6c5.4-27.3-5.9-55.1-28.8-70.9L417,657.4 l122.4-37.3L638.8,779.1z"/><path class="st3" d="M234.2,134.5c0-12.9,10.4-23.3,23.3-23.3h182.4c12.9,0,23.3,10.4,23.3,23.3v15.3H234.2V134.5z"/><path d="M383,504.3c0.3-0.6,0.7-1.1,1-1.6c0.5-0.9,1.1-1.7,1.6-2.6c0.4-0.7,0.9-1.4,1.4-2.1 c5.5-8.3,11.4-16.4,17.7-24.1c5.9-7.2,12.3-14,17.8-21.6c10.9-15,19.2-32,23.6-50.1c4.3-17.5,5.1-35.7,4-53.6 c-0.9-14.3-3.2-28.7-3-43.1c0.2-16.5,4.8-33.8,15.9-46.5c0,5.6-0.4,243.6-0.4,243.6v22.2c0,12-9.1,21.9-20.8,23.2 c-1.3,0.1-4.1,0.1-8.1,0.1h-63.6c-4.7,0-7.6,0-7.8,0C367,533.9,374,519,383,504.3z" fill="#e0e0ec"/><path d="M222.1,130.8v397.7c0,18.4,14.9,33.2,33.2,33.2H442c18.4,0,33.2-14.9,33.2-33.2V130.8 c0-18.4-14.9-33.2-33.2-33.2H255.3C236.9,97.5,222.1,112.4,222.1,130.8z M234.2,134.5c0-12.9,10.4-23.3,23.3-23.3h182.4 c12.9,0,23.3,10.4,23.3,23.3v64.1v134.9v191.4c0,12.9-10.4,23.3-23.3,23.3h-58.5H257.5c-7.2,0-13.6-3.3-17.9-8.4 c-3.4-4-5.4-9.2-5.4-14.9V344.9V204.2V134.5z" fill="#2e2044"/><path class="st4" d="M407.2,135h19.6c2.4,0,4.4-2,4.4-4.4l0,0c0-2.4-2-4.4-4.4-4.4h-19.6c-2.4,0-4.4,2-4.4,4.4v0 C402.8,133,404.8,135,407.2,135z"/><path class="st4" d="M440.9,135h3.8c2.4,0,4.4-2,4.4-4.4l0,0c0-2.4-2-4.4-4.4-4.4h-3.8c-2.4,0-4.4,2-4.4,4.4v0 C436.5,133,438.4,135,440.9,135z"/><circle class="st4" cx="253.2" cy="130.4" r="4.6"/><circle class="st4" cx="285.7" cy="130.4" r="4.6"/><circle class="st4" cx="269.5" cy="130.4" r="4.6"/><path d="M463.1,149.8v375c0,12.9-10.4,23.3-23.3,23.3H257.5c-7.2,0-13.6-3.3-17.9-8.4c-3.4-4-5.4-9.2-5.4-14.9v-375 H463.1z" fill="#fbfbff"/><defs><path id="SVGID_1_" d="M463.1,149.8v375c0,12.9-10.4,23.3-23.3,23.3H257.5c-7.2,0-13.6-3.3-17.9-8.4c-3.4-4-5.4-9.2-5.4-14.9 v-375H463.1z"/></defs><clipPath id="SVGID_2_"><use xlink:href="#SVGID_1_" overflow="visible"/></clipPath><g clip-path="url(#SVGID_2_)"><path class="st9" d="M409.9,503.3c-6,11-15.2,16.8-24.4,20.3c-14.1,5.4-30.6,5.5-41.4-9.1c-10.6-14.2-12.5-37.8-11.8-59.1 c0.8-28.3,5-56.4,12.2-82.6c10.4,7,14,9.4,24.4,16.4c-8.6-12.9-10.6-19.2-19.1-34c7.5-22.6,17.3-43.5,29.1-61.6 c5.5,9.9,10.5,20.4,15,31.5v0c-3.3,8.4-4.9,14.6-6.9,24.8c6.4-5.9,6.4-5.9,12.1-11.1c7.7,22.2,13.3,46.1,16.4,70.7l3,16.2 l-0.7,7.8c0.5,7.2,0.7,14.4,0.7,21.6C418.5,472,417.1,490.2,409.9,503.3z"/><path class="st9" d="M326.6 419.3L326.6 488.7 305.3 488.7 305.3 545.1 206.1 545.1 206.1 524.8 179.3 524.8 179.3 520.8 168.1 520.8 168.1 538.6 120.5 538.6 120.5 407.1 164.3 407.1 164.3 340.7 185.6 340.7 185.6 445.9 194.6 445.9 194.6 386.8 206.1 386.8 206.1 372.2 224.2 372.2 224.2 405.6 255 405.6 255 439.3 276.9 439.3 276.9 419.3 291.8 419.3 291.8 402.8 311.8 402.8 311.8 419.3z"/><path class="st9" d="M111.9 398.7L111.9 530.2 64.3 530.2 64.3 506.5 50 506.5 50 537.5 20.2 537.5 20.2 563.9 -41.7 563.9 -41.7 551.3 -46.7 551.3 -46.7 578 -108.5 578 -108.5 532.7 -137.1 532.7 -137.1 401.3 -100.9 401.3 -100.9 446.5 -50.4 446.5 -50.4 419.8 -28 419.8 -28 432.4 13.8 432.4 13.8 406.1 39.4 406.1 39.4 375 45.2 375 45.2 364.6 63.7 364.6 63.7 375 68.6 375 68.6 398.7z"/><path class="st9" d="M555.7 440.8L555.7 546.6 456.5 546.6 456.5 526.3 433.3 526.3 433.3 539.3 420.1 539.3 420.1 551.3 321 551.3 321 496 292.3 496 292.3 451.2 321 451.2 321 445.5 408.7 445.5 408.7 407.8 433.3 407.8 433.3 447.5 456.5 447.5 456.5 440.8 469.3 440.8 469.3 407.1 487.3 407.1 487.3 371 505.4 371 505.4 440.8z"/><path class="st9" d="M-141.9 556.8L-91.4 556.8 -91.4 361.8 -141.9 366.3z"/><path class="st9" d="M-71.2 556.8L-91.4 556.8 -91.4 361.8 -71.2 371.9z"/><path class="st9" d="M579.9 560.4L630.4 560.4 630.4 337.7 579.9 342.8z"/><path class="st9" d="M650.6 560.4L630.4 560.4 630.4 337.7 650.6 349.2z"/><path class="st9" d="M427.3 521.6L477.8 521.6 477.8 298.9 427.3 304z"/><path class="st9" d="M498.1 521.6L477.8 521.6 477.8 298.9 498.1 310.4z"/><path class="st9" d="M-72.8 559.6L-32.5 559.6 -32.5 222.4 -72.8 227.8z"/><path class="st9" d="M-16.4 559.6L-32.5 559.6 -32.5 222.4 -16.4 234.6z"/><path class="st9" d="M251.5 564.1L306 564.1 306 233 251.5 238.3z"/><path class="st9" d="M327.8 564.1L306 564.1 306 233 327.8 245z"/><path class="st9" d="M147.9 559.2L81.2 559.2 81.2 282.8 147.9 289.1z"/><path class="st9" d="M54.6 559.2L81.2 559.2 81.2 282.8 54.6 297z"/><path class="st9" d="M599.4 554.4L567.3 554.4 567.3 217.6 599.4 222.6z"/><path class="st9" d="M523.4 554.4L567.3 554.4 567.3 217.6 523.4 223.9z"/></g><path class="st1" d="M513.3,596.5L513.3,596.5c-27.8,41.9-83.6,37.9-109,23.2c-27.2-15.7-24.1-65.8,0.8-115.2 c7.3-14.6,16.2-28.8,25.8-41.5c15.3-20.3,25.7-44,28.9-69.2c5.7-46.3-10.3-76.1-7.7-105.8c4.5-52.4,50-55.9,50-55.9 s17.2,134.5,36.8,190.6c9,25.6-12.2,90.4-22.9,136.1C513.1,571.1,512.2,583.8,513.3,596.5z"/><path class="st2" d="M511.8,298.6c-10.2-3-20.1-11.5-22.2-22.6l-3.5-18.4c-0.6-3.1,1.3-6.1,4.3-7l13.5-3.6 C504,247.1,508.4,277.4,511.8,298.6z"/><path class="st4" d="M200.6,699.3c-0.1,3.4-1.6,6.7-4.1,9.2c-2.3,2.3-5.3,3.8-8.4,4.1c-1,0.1-1.9-0.6-2-1.6c-0.1-1,0.6-1.9,1.6-2 c2.3-0.2,4.5-1.3,6.2-3c1.9-1.9,2.9-4.3,3-6.8c0.1-2.4-0.8-4.7-2.4-6.3c-1.6-1.6-3.9-2.5-6.3-2.4c-2.5,0.1-4.9,1.2-6.7,3 c-2.8,2.8-3.8,6.8-2.5,10.2c0.4,0.9-0.1,2-1.1,2.4c-0.5,0.2-1,0.2-1.4-0.1c-0.4-0.2-0.8-0.6-1-1c-0.3-0.8-0.5-1.7-0.7-2.6 c-0.6-4.1,0.9-8.4,4-11.4c1.8-1.8,4-3.1,6.4-3.7c0.9-0.2,1.8-0.4,2.8-0.4c3.5-0.2,6.7,1.1,9.1,3.4 C199.5,692.6,200.8,695.8,200.6,699.3z"/><path class="st4" d="M254.9,46.6c-3.3-1-6.1-3.2-7.9-6.3c-1.7-2.8-2.3-6.1-1.8-9.2c0.1-1,1-1.7,2.1-1.5c1,0.2,1.7,1.1,1.5,2.1 c-0.4,2.3,0.1,4.7,1.3,6.8c1.3,2.3,3.4,3.9,5.8,4.6c2.3,0.7,4.7,0.5,6.7-0.7c2-1.2,3.4-3.1,3.9-5.5c0.5-2.4,0.1-5-1.2-7.3 c-2-3.4-5.6-5.4-9.2-5c-1,0.1-1.9-0.6-2-1.6c0-0.5,0.1-1,0.4-1.3c0.3-0.4,0.7-0.6,1.2-0.7c0.9-0.1,1.8-0.1,2.7,0 c4.1,0.5,7.9,3,10.1,6.8c1.3,2.2,2,4.7,2,7.1c0,0.9-0.1,1.9-0.3,2.8c-0.7,3.4-2.7,6.2-5.6,7.9C261.7,47.3,258.2,47.6,254.9,46.6z"/><path class="st10" d="M77.3,631.2c-7.6-8.6-3.3-25,9.7-36.6c13-11.6,29.8-14.1,37.5-5.6c7.6,8.6,3.3,25-9.7,36.6 c-8.2,7.4-18,11.1-26,10.6C84.1,635.9,80.1,634.3,77.3,631.2z"/><path class="st10" d="M120.1,96.1c5.5-8.8,20.8-9.2,34.2-0.9c13.4,8.3,19.9,22.2,14.4,31c-5.5,8.8-20.8,9.2-34.2,0.9 c-8.5-5.3-14.2-12.8-15.8-19.8C117.7,103.3,118.1,99.4,120.1,96.1z"/><ellipse transform="rotate(-72.986 106.512 403.596)" class="st4" cx="106.5" cy="403.6" rx="11.1" ry="17.3"/><path class="st10" d="M507.9,64.9c6.7-7.7,8-17.4,3.1-21.8c-5-4.3-14.4-1.6-21.1,6.1c-6.7,7.7-8,17.4-3.1,21.8 C491.8,75.3,501.2,72.6,507.9,64.9z"/><path class="st10" d="M594.4,312.6c-2.1-4.8-0.6-10.8,4.2-16.8c4.6-5.7,11.7-10.8,19.9-14.4c17.8-7.8,35.1-6.4,39.4,3.3 c4.3,9.7-6.4,23.4-24.2,31.2l0,0c-12.8,5.6-25.3,6.5-32.9,2.9C597.8,317.4,595.6,315.3,594.4,312.6z"/><path class="st4" d="M606.7,457.7c-3.4,0.6-7.4,0-11.1-1.6c-8.1-3.4-12.7-10.2-10.5-15.5c1.1-2.6,3.7-4.4,7.3-5 c3.4-0.6,7.4,0,11.1,1.6c8.1,3.4,12.7,10.2,10.5,15.5c-1.1,2.6-3.5,4.3-7,4.9C606.9,457.6,606.8,457.6,606.7,457.7z"/><path class="st4" d="M623,129.5c0.5,0,1.1-0.1,1.6-0.2l2.6-0.7c0.6-0.2,1.3-0.1,1.8,0.3c0.8,0.6,1.9,0.4,2.5-0.5 c0.6-0.8,0.4-1.9-0.5-2.5c-1.4-1-3.1-1.3-4.8-0.8l-2.6,0.7c-0.8,0.2-1.7,0-2.3-0.5c-0.6-0.6-0.9-1.4-0.8-2.3 c0.3-2.2-0.5-4.3-2.2-5.6c-1.7-1.4-4-1.7-6-0.9l-3.6,1.4c-1.1,0.1-2.2-0.6-2.4-1.7l-1.7-7.9c-0.3-1.3-1-2.5-2.1-3.4 c-0.8-0.6-1.9-0.4-2.5,0.3c-0.6,0.8-0.4,1.9,0.3,2.5c0.4,0.3,0.7,0.8,0.8,1.3l1.7,7.9c0.7,3.1,3.6,5,6.7,4.4c0.1,0,0.2-0.1,0.3-0.1 l3.7-1.5c0.9-0.3,1.8-0.2,2.5,0.4c0.7,0.6,1.1,1.4,0.9,2.3c-0.3,2,0.4,4,2,5.4C620.1,129,621.5,129.5,623,129.5z"/><path class="st4" d="M38.2,250.8c0.5,0,1.1-0.1,1.6-0.2l2.6-0.7c0.6-0.2,1.3-0.1,1.8,0.3c0.8,0.6,1.9,0.4,2.5-0.5 c0.6-0.8,0.4-1.9-0.5-2.5c-1.4-1-3.1-1.3-4.8-0.8l-2.6,0.7c-0.8,0.2-1.7,0-2.3-0.5c-0.6-0.6-0.9-1.4-0.8-2.3 c0.3-2.2-0.5-4.3-2.2-5.6c-1.7-1.4-4-1.7-6-0.9l-3.6,1.4c-1.1,0.1-2.2-0.6-2.4-1.7l-1.7-7.9c-0.3-1.3-1-2.5-2.1-3.4 c-0.8-0.6-1.9-0.4-2.5,0.3c-0.6,0.8-0.4,1.9,0.3,2.5c0.4,0.3,0.7,0.8,0.8,1.3l1.7,7.9c0.7,3.1,3.6,5,6.7,4.4c0.1,0,0.2-0.1,0.3-0.1 l3.7-1.5c0.9-0.3,1.8-0.2,2.5,0.4c0.7,0.6,1.1,1.4,0.9,2.3c-0.3,2,0.4,4,2,5.4C35.3,250.3,36.8,250.8,38.2,250.8z"/><path class="st10" d="M660,612.8c0-0.5-0.1-1.1-0.2-1.6l-0.7-2.6c-0.2-0.6-0.1-1.3,0.3-1.8c0.6-0.8,0.4-1.9-0.5-2.5 c-0.8-0.6-1.9-0.4-2.5,0.5c-1,1.4-1.3,3.1-0.8,4.8l0.7,2.6c0.2,0.8,0,1.7-0.5,2.3c-0.6,0.6-1.4,0.9-2.3,0.8 c-2.2-0.3-4.3,0.5-5.6,2.2c-1.4,1.7-1.7,4-0.9,6l1.4,3.6c0.1,1.1-0.6,2.2-1.7,2.4l-7.9,1.7c-1.3,0.3-2.5,1-3.4,2.1 c-0.6,0.8-0.4,1.9,0.3,2.5c0.8,0.6,1.9,0.4,2.5-0.3c0.3-0.4,0.8-0.7,1.3-0.8l7.9-1.7c3.1-0.7,5-3.6,4.4-6.7c0-0.1-0.1-0.2-0.1-0.3 l-1.5-3.7c-0.3-0.9-0.2-1.8,0.4-2.5c0.6-0.7,1.4-1.1,2.3-0.9c2,0.3,4-0.4,5.4-2C659.5,615.7,660,614.3,660,612.8z"/><path class="st11" d="M283.7 312L283.7 266 329.7 266 329.7 247.7 265.4 247.7 265.4 312z"/><path class="st11" d="M283.7 350L265.4 350 265.4 414.3 329.7 414.3 329.7 396 283.7 396z"/><path class="st11" d="M413.7 312L432 312 432 247.7 367.7 247.7 367.7 266 413.7 266z"/><path class="st11" d="M413.7 350L413.7 396 367.7 396 367.7 414.3 432 414.3 432 350z"/><circle cx="343.7" cy="508.1" r="24" fill="#ff4200"/></svg>