<svg version="1.1" id="Layer_1" xmlns="http://www.w3.org/2000/svg" xmlns:xlink="http://www.w3.org/1999/xlink" x="0" y="0" viewBox="0 0 30 13.8" xml:space="preserve"><defs><path id="SVGID_1_" d="M0 0H30V13.8H0z"/></defs><clipPath id="SVGID_2_"><use xlink:href="#SVGID_1_" overflow="visible"/></clipPath><path clip-path="url(#SVGID_2_)" d="M23.1,0c-2.6,0-4.9,1.5-6.1,3.7C16.4,3.2,15.8,3,15,3s-1.4,0.3-2,0.7 C11.8,1.5,9.6,0,6.9,0C3.1,0,0,3.1,0,6.9c0,3.8,3.1,6.9,6.9,6.9s6.9-3.1,6.9-6.9c0-0.3,0-0.5,0-0.8h0C13.8,5.5,14.3,5,15,5 c0.7,0,1.2,0.5,1.2,1.2h0c0,0.2,0,0.5,0,0.8c0,3.8,3.1,6.9,6.9,6.9S30,10.7,30,6.9C30,3.1,26.9,0,23.1,0 M6.9,11.8 C4.2,11.8,2,9.6,2,6.9S4.2,2,6.9,2c2.7,0,4.9,2.2,4.9,4.9S9.6,11.8,6.9,11.8 M23.1,11.8c-2.7,0-4.9-2.2-4.9-4.9S20.4,2,23.1,2 C25.8,2,28,4.2,28,6.9S25.8,11.8,23.1,11.8"/></svg>