<svg version="1.1" id="Layer_1" xmlns="http://www.w3.org/2000/svg" x="0" y="0" viewBox="0 0 18 20" xml:space="preserve"><path d="M17,20c-0.1,0-0.3,0-0.4-0.1l-4.9-2.1l-4.9,2.1c-0.2,0.1-0.5,0.1-0.8,0 l-5.3-2.3C0.2,17.5,0,17.1,0,16.7V3.2c0-0.3,0.2-0.6,0.4-0.8c0.3-0.2,0.6-0.2,0.9-0.1l4.9,2.1l1.1-0.5C8,3.7,8.5,4,8.8,4.5 C9,5,8.7,5.6,8.2,5.8L6.7,6.4c-0.3,0.1-0.5,0.1-0.8,0L2,4.8v11.3l4.3,1.8l4.9-2.1c0.2-0.1,0.5-0.1,0.8,0l3.9,1.7V6.2l-0.9-0.4 c-0.5-0.2-0.7-0.8-0.5-1.3c0.2-0.5,0.8-0.7,1.3-0.5l1.5,0.6C17.8,4.7,18,5.1,18,5.5V19c0,0.3-0.2,0.6-0.4,0.8 C17.4,19.9,17.2,20,17,20"/><path d="M11.7,12.3c-0.3,0-0.6-0.1-0.7-0.3c-0.1-0.2-0.3-0.3-0.5-0.5 c-1-1.1-2.5-2.7-3.2-4.6c-0.4-1-0.5-2-0.3-2.9C7.4,1.2,9.7,0,11.7,0c2,0,4.3,1.2,4.7,3.9c0.2,0.9,0.1,1.9-0.3,2.9 c-0.7,1.9-2.2,3.5-3.2,4.6c-0.2,0.2-0.3,0.3-0.5,0.5C12.2,12.1,11.9,12.3,11.7,12.3 M11.7,2c-1.1,0-2.5,0.6-2.8,2.3 c-0.1,0.6,0,1.2,0.2,1.8c0.5,1.4,1.6,2.7,2.5,3.7c0.9-1,2-2.3,2.5-3.7c0.3-0.7,0.3-1.3,0.2-1.8C14.1,2.6,12.7,2,11.7,2 M7.9,4.1 L7.9,4.1L7.9,4.1z"/></svg>