<svg version="1.1" id="Слой_1" xmlns="http://www.w3.org/2000/svg" x="0" y="0" viewBox="0 0 40.3 41.7" xml:space="preserve"><style>.st0{fill:#eeebe8}</style><path class="st0" d="M15.1,15.1h-4.5v3h4.5v4.5h3v-4.5h4.5v-3h-4.5v-4.5h-3V15.1z M15.1,10.6"/><path class="st0" d="M16.6,2.3C8.7,2.3,2.3,8.7,2.3,16.6s6.4,14.3,14.3,14.3c3.4,0,6.5-1.2,9-3.2l10.6,10.6l2.1-2.1L27.7,25.6 c2-2.5,3.2-5.6,3.2-9C30.9,8.7,24.5,2.3,16.6,2.3L16.6,2.3z M16.6,27.9c-6.2,0-11.3-5.1-11.3-11.3S10.4,5.3,16.6,5.3 s11.3,5.1,11.3,11.3c0,3-1.2,5.7-3.1,7.7l-0.5,0.5C22.3,26.7,19.6,27.9,16.6,27.9L16.6,27.9z M16.6,27.9"/></svg>