<?xml version="1.0" encoding="utf-8"?>
<!-- Generator: Adobe Illustrator 17.1.0, SVG Export Plug-In . SVG Version: 6.00 Build 0)  -->
<!DOCTYPE svg PUBLIC "-//W3C//DTD SVG 1.1//EN" "http://www.w3.org/Graphics/SVG/1.1/DTD/svg11.dtd">
<svg version="1.1" id="Layer_1" xmlns="http://www.w3.org/2000/svg" xmlns:xlink="http://www.w3.org/1999/xlink" x="0px" y="0px"
	 viewBox="0 0 26 18" enable-background="new 0 0 26 18" xml:space="preserve">
<g>
	<defs>
		<rect id="SVGID_1_" y="0" width="26" height="18"/>
	</defs>
	<clipPath id="SVGID_2_">
		<use xlink:href="#SVGID_1_"  overflow="visible"/>
	</clipPath>
	<path clip-path="url(#SVGID_2_)" d="M25.5,9l-1.3-1.3c-0.6-0.6-1.7-0.6-2.3,0l-5.4,5.4c-0.1,0.1-0.2,0.2-0.2,0.4l-1,3.1
		c-0.1,0.4,0,0.8,0.2,1c0.2,0.2,0.4,0.3,0.7,0.3c0.1,0,0.2,0,0.3-0.1l3.1-1c0.1-0.1,0.3-0.1,0.4-0.2l5.4-5.4
		C26.2,10.6,26.2,9.6,25.5,9 M23.4,9.1L23.4,9.1C23.4,9.1,23.4,9.1,23.4,9.1L23.4,9.1z M18.9,15l-1.1,0.4l0.3-1l5-5l0.7,0.7L18.9,15
		z"/>
	<path clip-path="url(#SVGID_2_)" d="M12.1,13.6H2.2c-0.1,0-0.2-0.1-0.2-0.2V3.6l8.4,8c0.2,0.2,0.4,0.3,0.7,0.3
		c0.3,0,0.5-0.1,0.7-0.3l8.4-8.2v0.2c0,0.6,0.4,1,1,1c0.6,0,1-0.4,1-1V2.2c0-1.2-1-2.2-2.2-2.2H2.2C1,0,0,1,0,2.2v11.2
		c0,1.2,1,2.2,2.2,2.2h9.9c0.6,0,1-0.4,1-1C13.1,14,12.7,13.6,12.1,13.6 M11,9.5L3.2,2h15.5L11,9.5z"/>
</g>
</svg>
