<?xml version="1.0" encoding="utf-8"?>
<!-- Generator: Adobe Illustrator 17.1.0, SVG Export Plug-In . SVG Version: 6.00 Build 0)  -->
<!DOCTYPE svg PUBLIC "-//W3C//DTD SVG 1.1//EN" "http://www.w3.org/Graphics/SVG/1.1/DTD/svg11.dtd">
<svg version="1.1" id="Layer_1" xmlns="http://www.w3.org/2000/svg" xmlns:xlink="http://www.w3.org/1999/xlink" x="0px" y="0px"
	 viewBox="0 0 16.6 16.6" enable-background="new 0 0 16.6 16.6" xml:space="preserve">
<g>
	<defs>
		<rect id="SVGID_1_" y="0" width="16.6" height="16.6"/>
	</defs>
	<clipPath id="SVGID_2_">
		<use xlink:href="#SVGID_1_"  overflow="visible"/>
	</clipPath>
	<path clip-path="url(#SVGID_2_)" fill-rule="evenodd" clip-rule="evenodd" fill="#18130B" d="M8.3,0c4.6,0,8.3,3.7,8.3,8.3
		c0,4.6-3.7,8.3-8.3,8.3S0,12.9,0,8.3C0,3.7,3.7,0,8.3,0 M8.3,9.7c-1.9,0-3.6,0.9-4.6,2.3c1.1,1.4,2.8,2.3,4.6,2.3s3.6-0.9,4.6-2.3
		C11.9,10.6,10.2,9.7,8.3,9.7 M8.3,2.8C6.9,2.8,5.8,4,5.8,5.3c0,1.4,1.1,2.5,2.5,2.5s2.5-1.1,2.5-2.5C10.8,4,9.7,2.8,8.3,2.8"/>
</g>
</svg>
